<mxfile host="app.diagrams.net" agent="Mozilla/5.0 (Windows NT 10.0; Win64; x64) AppleWebKit/537.36 (KHTML, like Gecko) Chrome/129.0.0.0 Safari/537.36" version="24.7.17">
  <diagram id="C5RBs43oDa-KdzZeNtuy" name="Page-1">
    <mxGraphModel dx="1050" dy="557" grid="1" gridSize="10" guides="1" tooltips="1" connect="1" arrows="1" fold="1" page="1" pageScale="1" pageWidth="827" pageHeight="1169" math="0" shadow="0">
      <root>
        <mxCell id="WIyWlLk6GJQsqaUBKTNV-0" />
        <mxCell id="WIyWlLk6GJQsqaUBKTNV-1" parent="WIyWlLk6GJQsqaUBKTNV-0" />
        <mxCell id="WIyWlLk6GJQsqaUBKTNV-3" value="mulai" style="rounded=1;whiteSpace=wrap;html=1;fontSize=12;glass=0;strokeWidth=1;shadow=0;" parent="WIyWlLk6GJQsqaUBKTNV-1" vertex="1">
          <mxGeometry x="30" y="40" width="120" height="40" as="geometry" />
        </mxCell>
        <mxCell id="pJdw8WRcIaDxckqF8YET-0" value="" style="endArrow=classic;html=1;rounded=0;" edge="1" parent="WIyWlLk6GJQsqaUBKTNV-1">
          <mxGeometry width="50" height="50" relative="1" as="geometry">
            <mxPoint x="150" y="59.5" as="sourcePoint" />
            <mxPoint x="220" y="59.5" as="targetPoint" />
          </mxGeometry>
        </mxCell>
        <mxCell id="pJdw8WRcIaDxckqF8YET-1" value="deklarasi variabel&lt;div&gt;pin sev.seg (a,b,c,d,e, ...)&lt;/div&gt;&lt;div&gt;pin (digital 1, 2)&lt;/div&gt;&lt;div&gt;button&lt;/div&gt;&lt;div&gt;traffic light(merah,kuning,hijau)&lt;/div&gt;" style="rounded=0;whiteSpace=wrap;html=1;" vertex="1" parent="WIyWlLk6GJQsqaUBKTNV-1">
          <mxGeometry x="220" y="7.5" width="170" height="105" as="geometry" />
        </mxCell>
        <mxCell id="pJdw8WRcIaDxckqF8YET-2" value="" style="endArrow=classic;html=1;rounded=0;" edge="1" parent="WIyWlLk6GJQsqaUBKTNV-1">
          <mxGeometry width="50" height="50" relative="1" as="geometry">
            <mxPoint x="390" y="60" as="sourcePoint" />
            <mxPoint x="440" y="60" as="targetPoint" />
          </mxGeometry>
        </mxCell>
        <mxCell id="pJdw8WRcIaDxckqF8YET-4" value="start loop" style="rounded=1;whiteSpace=wrap;html=1;" vertex="1" parent="WIyWlLk6GJQsqaUBKTNV-1">
          <mxGeometry x="475" y="140" width="70" height="40" as="geometry" />
        </mxCell>
        <mxCell id="pJdw8WRcIaDxckqF8YET-5" value="" style="endArrow=classic;html=1;rounded=0;" edge="1" parent="WIyWlLk6GJQsqaUBKTNV-1">
          <mxGeometry width="50" height="50" relative="1" as="geometry">
            <mxPoint x="510" y="95" as="sourcePoint" />
            <mxPoint x="510" y="135" as="targetPoint" />
          </mxGeometry>
        </mxCell>
        <mxCell id="pJdw8WRcIaDxckqF8YET-8" value="PinMode input=dig1,dig2&lt;div&gt;PinMode input=button&lt;br&gt;&lt;div&gt;PinMode output,(a,b,c,d ...)&lt;/div&gt;&lt;/div&gt;&lt;div&gt;PinMode output=traffic light&lt;/div&gt;" style="shape=parallelogram;perimeter=parallelogramPerimeter;whiteSpace=wrap;html=1;fixedSize=1;" vertex="1" parent="WIyWlLk6GJQsqaUBKTNV-1">
          <mxGeometry x="440" y="20" width="190" height="70" as="geometry" />
        </mxCell>
        <mxCell id="pJdw8WRcIaDxckqF8YET-9" value="" style="endArrow=classic;html=1;rounded=0;" edge="1" parent="WIyWlLk6GJQsqaUBKTNV-1">
          <mxGeometry width="50" height="50" relative="1" as="geometry">
            <mxPoint x="509.5" y="180" as="sourcePoint" />
            <mxPoint x="509.5" y="220" as="targetPoint" />
          </mxGeometry>
        </mxCell>
        <mxCell id="pJdw8WRcIaDxckqF8YET-15" value="" style="rhombus;whiteSpace=wrap;html=1;" vertex="1" parent="WIyWlLk6GJQsqaUBKTNV-1">
          <mxGeometry x="410" y="220" width="200" height="100" as="geometry" />
        </mxCell>
        <mxCell id="pJdw8WRcIaDxckqF8YET-16" value="" style="shape=image;verticalLabelPosition=bottom;labelBackgroundColor=default;verticalAlign=top;aspect=fixed;imageAspect=0;image=data:image/png,iVBORw0KGgoAAAANSUhEUgAAATYAAAAcCAYAAADr/JNNAAAAAXNSR0IArs4c6QAAAARnQU1BAACxjwv8YQUAAAAJcEhZcwAADsMAAA7DAcdvqGQAAAoUSURBVHhe7ZxbbFNHGsf/5ibKUkqLajlcVvWqb4VEDhIlDa1EqhTRF6hpkBrSVapKLQ8IiRb1BZJmc3lYRItEHwrSRqAQUokUN3nodiFq0ALBUAnSBHir1lVDSXA3hQ3lIm5nv5kzx55zc3yNjZmfNJiZczxnfM58f3/fN+N4NO2RBoVCoSgipolXhUKhKBqUsCkUiqJDCZtCoSg6lLApFIqiQwmbQqEoOtITtitd2OCZhrazoq4oCG4e2ozoru9wW9RjRL/Db9vp2Pb9uCma0mcMN3axvjbj90uiKWfEr6WXJtyIikOFyKX9k45x/ORWlHf0YFzUGWNfvQ2Ppw1hUS9extHTsRxbT8qfPjcUjMeW3MMNo40EdcNXY6KuKEwG8TsJ0W99mT4nH+Z/sg/e3VTqA6LtMebyHlQPD+Dd5euxQDTlinDLNHg2dtFXQwKm3EFZgPXL63B6+A3suSyacoQKRZNBTACP5210XRFtjxPetXieicPuD/G0aEqfuNg8t1Q05Rnuqca8OqNkwzvNItEebD3RiVWlx7HtJdH2JPLSNvSVVuLQia3oyaH3rYQtIWPo2kiC9hGwvSso2hQFiXcd5nLx1gV8BnmNdwpI3IbDLTg9rwGfvpZrX63wWfDap2icN4Dmf5lD8mySsbBxl5d7M3bX19EdNrm/emjJ3ltSG6J6A14x+uJFD031MJXVK7GT6qHahdI5DqFpzMMyiiXE5cd17yvx+Bfi6FtXoR2phV+0FRK3+5pMXsqdIXHAIJZbE8Up/2bA80PSubFiiMPk+a74ePbjAdW1Y+bxWUNTm6d1aFAcyZQAZq/x0esg7lvzgNbP6XRN631zy5tZzzvoMn7y1v4xgiRC0Lg9sGKe185pGFMKR5r3rzRSvbsOJaIuz+/YnF9SB2Z1Oyukc6hYQ9O4/YnSYk4Y8eO870Tjl9FDUky0oMM1JBVORbq5R/aTqpTLSKcWRFAL1kBD84BoH9Baqbt4/ZF2ppnqNZ3aqPE+Vvh7obWGpTYqo11BDWjRzkht9qJfI9h11eGYXvR+zP3zcdB4D4+INjEGdl68L/v45aL3K/WR5zLR8YF27eMvtQlr29+/1W5Jbckc0y5+SX19oI1fNNrOa+NUT3x+o3b9msMxXvT3R4+7P6dbxxul61G59q0WZdfsOG86L1YSXNPps7H+refb28TnNF2T2ix96ffacm3bPTPa7GP877+3aIEvPtOGpDa58LlVQ/Ykz9twi2UeO899N7txtD1rcbHFeLmqHWY2bupf2InUt2FzJvuwjd9aftQ+/yKgBXp+dDhGRbJR9z7cSwYeWwihZQPQGipEvQLvs3Ct8bM85qHCaCfPjx4+dqwUTURFwwBaabybDli0v3kAR99h3+yMClQ108vFiMlryxa2bz1TSTF3R57CXfLOZtRnI2dGntMgeRoUys2O5cyExxM9h3s5yoPMqW4y5+i8azG7jF6Hfsg8fKT7c+sYPUXvy5jlFW3kvd2lNs+azZgfawvgObYoMdQreWTU9slazBE1xtNr1sFDs+L+kDEzyHv9J92zsg+TyDOO49TPA8CS11EqWhzpDqE8/Cg+b1e+DxIV7PzcEvFMJWfbsak7iMMjO8g6DCqwg8Jq5g22Wzy71vDXqF0sKiuryOaACxG30Zfi9SX08r//OIeji6uwgT4/iSqqJFtOloxC0dbq+Mdl+Pxs5SqESL6E7Ww/D1XL/YZYGTiLlnX8ucT3ztfMO3Yp0oRIgttD5+irLICZWUnej+HhqPivjRJMj4lA7pnusz63FIj24g8jJNzVC6xpglcWqEs/UHjsw8wyyzW8f+ai9SiRgHt9mC7+y4lSiEvnzwgks1L7KyITwKpnF4m6G1YD9sG/jF66I4joDVNOuK+B/g3Ab52bjqKVugAteraSwtEI3SEnfKg9wmxDFtXkye7iwWI/yGfLM0H7gzDI4yQpXHyY/yYZKAnD3Vg+SvduULYiKx6hM/qWkHgeazP+YNdMl9jiAVs4oPjlWK/J87s9ytR7DPdMeUIqJIIs3pGx5i6NnOFU438x/9aEGr9rfjn0U+FaU3aF7UqE/LUEwpJvEjykXJPVUDTL6EYPPDgoGTKFWd53c7V3jIkaXcO0krkPc3nCP1NEeMnEWVqsmFNSQv/6MMvYF2cpRkjJRI0J7Ix6+bgullNN5KdQXufsZARfLNSRZVnYXF1XibFTIb4SY0UPYwcnCWPpIVPc7fpNwV3kEI6esn7zh9HfSA/irSqa2vkhm6GobqSjeCiHTyLvljpG7olCN8nQMxO1EkyjEFYbc4lxeVhIodyb5lxW1li6jufWTF5bMiEn8+gGae6Y8o0OiND04ag8z0TezcYi+OcBp687B1zu6HMWy/wJ5uwY+r9xsibh7U0WoVCEVU4vbnmwimqWSwuh32qTPOUTxIZXM7OmX68PAPP8dIecMVZv09lAnD1hO9vGl5hbw/GYWL+58RvDvBZ9W4cDPIx1SPCbEHkH1wUKfQEjVLvFdDzcwraJtGB7bKHgMWfpCvIgyAiPGYZEHhDLK5HBpc4kIpQWZPhMe01JeQkuMuQhskULAdv6kVEoakKE17LXJhYnHhxM9JMnMW550YRv6bCGogHMpL5k4bx5qAn36P3sc5lZgFdfqARGvsewaEkGY86eiS3OiS/1b/rpyTPYdoiF2NTNKzZ0R6EBuxP+Skf0WdvuvKWCL2CQTX4kL2CE0VZBDkzzxyl9GdsZxvcj9PLMX1y2wAhhJ9JZQPGQx2BNMSSB001lqyd2z4OpLt9Tw6jpxOgRP9o99KDlFSADEkcPu2kx6MHakof2a7NV0PjqpoOA8uvW0rQTsP0+S+rMq1AEH+vF+LkJhdja51TDDC6WH2IhVhNmDVEYNfgy5oqkuRFWOcE8tOerxehNfcno/fJVRNdzCBZSWlYS2XO6sYuMXRIR0zXZfjJp3xc79ifso/GW4CnjFxJJXpOJ4p1R6xiM6wfi/RGO98Q0fuu42ftX4D6J20N5/Jbz+GcrG6TxnsNM454ZsF8dHGmBf/V5518diPlommmO8yuMNrGXk8Hnvb+dbAYOduIwf5Pok9Fqsotk7S1gGYPe7wXLuTEu70H5iQgaN+7FevleScTH76QDiUlT2BRFgyEetpyaszAo0mO4dznqR+pwcMu2xNs+ngjYj+HfQPMzB3BhXYK7YQh+s7ytLDmyu3igePyI/sI9IvvWBRGWKbJCKUUiq9CJ+t5UAtLiZPzk39A8UYnGisQSHz7AvFiKBN9LTdQYStiedBzyXRwKFflPtHK65eMJwrsee1fXASPvTcmf7SlYjL9wsjpxCMoWDXhaKMWFNQMViipcc1lsy0Oh/AWPYoH9Pbbqn6vQ99fc/+miwkMPQftfOI69Of5jAErYFApF0aFCUYVCUXQoYVMoFEWHEjaFQlF0KGFTKBRFBvB/P9iJINQ/wDQAAAAASUVORK5CYII=;" vertex="1" parent="WIyWlLk6GJQsqaUBKTNV-1">
          <mxGeometry x="432" y="262.96" width="156" height="14.09" as="geometry" />
        </mxCell>
        <mxCell id="pJdw8WRcIaDxckqF8YET-17" value="" style="endArrow=classic;html=1;rounded=0;" edge="1" parent="WIyWlLk6GJQsqaUBKTNV-1">
          <mxGeometry width="50" height="50" relative="1" as="geometry">
            <mxPoint x="404" y="269.5" as="sourcePoint" />
            <mxPoint x="354" y="269.5" as="targetPoint" />
          </mxGeometry>
        </mxCell>
        <mxCell id="pJdw8WRcIaDxckqF8YET-19" value="button=high" style="text;html=1;align=center;verticalAlign=middle;whiteSpace=wrap;rounded=0;" vertex="1" parent="WIyWlLk6GJQsqaUBKTNV-1">
          <mxGeometry x="354" y="229.99999999999997" width="60" height="30" as="geometry" />
        </mxCell>
        <mxCell id="pJdw8WRcIaDxckqF8YET-20" value="button=low" style="text;html=1;align=center;verticalAlign=middle;whiteSpace=wrap;rounded=0;" vertex="1" parent="WIyWlLk6GJQsqaUBKTNV-1">
          <mxGeometry x="432" y="350" width="60" height="30" as="geometry" />
        </mxCell>
        <mxCell id="pJdw8WRcIaDxckqF8YET-23" value="output&lt;div&gt;hijau kedip&lt;/div&gt;" style="shape=parallelogram;perimeter=parallelogramPerimeter;whiteSpace=wrap;html=1;fixedSize=1;" vertex="1" parent="WIyWlLk6GJQsqaUBKTNV-1">
          <mxGeometry x="450" y="400" width="120" height="60" as="geometry" />
        </mxCell>
        <mxCell id="pJdw8WRcIaDxckqF8YET-24" value="" style="endArrow=classic;html=1;rounded=0;" edge="1" parent="WIyWlLk6GJQsqaUBKTNV-1">
          <mxGeometry width="50" height="50" relative="1" as="geometry">
            <mxPoint x="246.91" y="365" as="sourcePoint" />
            <mxPoint x="246.91" y="405" as="targetPoint" />
          </mxGeometry>
        </mxCell>
        <mxCell id="pJdw8WRcIaDxckqF8YET-25" value="output&lt;div&gt;20-0&lt;/div&gt;" style="shape=parallelogram;perimeter=parallelogramPerimeter;whiteSpace=wrap;html=1;fixedSize=1;" vertex="1" parent="WIyWlLk6GJQsqaUBKTNV-1">
          <mxGeometry x="190" y="640" width="120" height="60" as="geometry" />
        </mxCell>
        <mxCell id="pJdw8WRcIaDxckqF8YET-27" value="stop" style="rounded=1;whiteSpace=wrap;html=1;" vertex="1" parent="WIyWlLk6GJQsqaUBKTNV-1">
          <mxGeometry x="390" y="640" width="120" height="60" as="geometry" />
        </mxCell>
        <mxCell id="pJdw8WRcIaDxckqF8YET-29" value="" style="rounded=0;whiteSpace=wrap;html=1;" vertex="1" parent="WIyWlLk6GJQsqaUBKTNV-1">
          <mxGeometry x="147.41" y="225" width="200" height="140" as="geometry" />
        </mxCell>
        <mxCell id="pJdw8WRcIaDxckqF8YET-30" value="" style="shape=image;verticalLabelPosition=bottom;labelBackgroundColor=default;verticalAlign=top;aspect=fixed;imageAspect=0;image=data:image/png,iVBORw0KGgoAAAANSUhEUgAAAScAAABqCAYAAAD+65dHAAAAAXNSR0IArs4c6QAAAARnQU1BAACxjwv8YQUAAAAJcEhZcwAADsMAAA7DAcdvqGQAABIpSURBVHhe7Z1tbBTXucf/63I/3PIhH3rtmFycshF8IUljI+7FC7KaWAUpDQrF1BRsFEzypbmXioZEqpBtCn6J75XSJFajm3yhJBFep7iYkkK5wpFJZNlrWsSLePkCimmg2NhKpahNPvDi6TkzZ3ZnZmd2Z9/s8fr/kx6GOTs7Mzu75/HzPOec5wlp2rSGDLh8+QrC4SVYuHChaiGEkPxToraEEBIoqJwIIYGEyokQEkionAghgYTKiRASSKicCCGBhMqJEBJIqJwIIYGEyokQEkgyniFOCCEzAS0nQkggoXIihAQSKidCSCDJXTndCmFTKISQRaK31GtB4OJbaIm8hatq10l0s3HPnaOqgRCSIZP4dHcZuo9Pqn0f6P2yTJfoRdXmIDflJBVTBdDfBmiaFpeGxer12WbyCLp/2oXS5kYsV02FItYulJxQdBNqn5D5Qxme3r4HU51PeCoaG6pfLn9vEh2xSTQ8pdod5DRaN9EbwqIGoOdmgBRSnLOIRn6Iq41/RMfOlaqtcEjltPoSMH5YQ7lqKz6u4H+7OrFf7QHLcLBpP36ySO0WAXcGfonw2WtqTxFuxjdbHlc7CZKOdT2u+J+ZydTxHejuBH5w7CCeLlONLujHDa7Hrjc3oVS1uSKVU7YyHhVmkjjDiMtrsy2Tf9iuNVf/Srvi8lohZKRNPIt6TRt3ea0o5Pb/a1te36L9a++leNtor9h/vVX76Lbj2LkiNw9pdajTem66vGaKy+eWkvTZ3Y4rxmeWUia006/8m9b8Sp826fq6IVd+nf4YKQUPiEvryhqPCgkLw04InaJ9U6/476j92OzjQGcx0HkipTtnxppMcYuT6a6avF9HXC1+X5b21XvFfh+wyHJc5m5eTDyLEv38E70/FucoUdIpXpldznz2Po491IQxi2Wwaks3Dj50DTs+u6JaLIx26ve+qTd7R1d/Bpuj4hkaz8V8HrmcM468v4pt6K+vQ20qq3/ROvw8LLZ/+yvuGC3CPD6Ft8eAXz5rsYDEcb3PrgPGDuO340bTnHhm+jV/nDZObPwe0/0ODfcOsZcx4Me9S0PmysmiQKRLJ1lt7ZAW5SMVgDxmJB6PAjpEJ3brtP0N4r2RxLHjUaAlkmVw/eIQruI5PPWf3rZlg3C/9HtK1+vl/VYAr7nd12INR1T7SJvYrxe/W7WvS5YuXkukBIuuvyrOMS3kNnrqW7Fa/8HNFlfwqeiMG5ZV4WHVonPhBHZ8JbZjf8YZoyVObKBV3/YfHcztvvu2CYX/K4RvymchJNYufiuP5DSAoXe0iLi/tmHxHTVk/B3duTyMY1iHpytVg84UfjtySmyv4feXp8S2uJ6Zb56q0Q2Cq0Nnjf0cyFw5VSc6n+yokoTyEdKqQlhCiTUKS0LGo4TOUWholspAtB9wPijVsc1jy2uAOrEdy0I5XR3qAiLr8XgKvzcTrJ8hl/vyTf0hjLfGr4jajeKKfWMQv/UMsP/lTJL2DGyx8b/igthUliYiBDLe8u2TwGlpLYg7u6GsBZPI2nZ9W7exNucYXEfsd4mYZnUtOsTm3Fh23TfWLhR/Q784p+i08Wecggvv4xlpJa1eF1cyN768Bjz0CJaofSOutAu/X9YsrCLg2JeTRfXMMmMlKhvF5vO/CHWdGwVz62IDxjbsNJmrxYMTm3POnvak7IYWlFXSLI7PjElMfi42j303dbDNL0JppjT7C0A+fpzip45m3fLyED8d0xVhIfxfA8JfbsY3e5qwSrUmUd2sX+fI1lw/STtqM/4NuDEhLPkS4X7XiT8206l/V0IhfburwZCTp7BhZTd+YbOSLOjHHsaSpih613r9NZyrzyw7Spc8JxTAFx7K6Swu9IhjamvS9s/CxpxEx5buuhv9152xJxJ8TAuh23X0KtCMHtAteV9UNgklElXSjR9d2yUU0PtJbtgN0xLak2r0LWjPzFDScQtaurfoR2OFpU23qu2Wt7Q2gVastrRlFhuTo+dyXtMQKmOT2LU+vVtT8IC4F3VLud64sOTRrVv075CGw/6TncCz0kKwuCpT0gQOY0nQh8aVVTLSZnRE/x2rFD/Z2IQNOIVPpZ8mWPKdZcBXwt27tgZjNktoEje+AjZ8R3S8wD6zcjQctljQMelKGtZkvE23qu2W93hUBjPaMWJpy8zCW4kGoZQ6YjW4IJSUnwmbBVNOkbXiH/GXatAZmxkFWsRmU42xm3/KUPaY2OTB582E8FLxj/i8mcWFCkk+3brH8bQ0gR9qQpMjCPzptWviw/9HsqtyK4pNUgnOaiA/mUir0dFkgDgjBW3h4SfWCGVlj0PpXPgz9mMZfvSEVETF88wyZerGCfGgH/Vw24yY1NTgUNr+WTjLqVpDj3DrGndbR+ZC6JR9og0FnbS5vEYOZx7HlQxm0+dKufJf35BTIoqQVd8X1oOwFn4+kPhJnfloF3Z8tQ6nXdyViaF+4SwI+rYlD37MMuVbf2dYDHvX+FAEwi1735gSEFcyanrB/pMWV2/8FLbq8amdcRevmJ6Zf4yYUj5ivgV16+RwvbzPxNwf4FzUMqJXKPThzBO4+CcP7WSdt6QMiMYKtZ/tEhShjOXopT4lwjx3tucKInIeT1OT+O3J+IsRLH5mTHQyjwBv+dZX9YEPycyMEmWIdPNuHkJdX7/Nuj/zkQqEx8Vwy775L7uVtGpLFKfDp/CMeZxQYFjZbXPfiu6Z+UFN4/nB5txXZYSEiV+UwR+/U+lJ4ZDD9sbomGVYm6Rkbj8zuQD4CXzyWOolY1ffKUP083fTLl+ZtYB4oSld/9+69fTJ/xyZ0dgTUdyK4g05a77tVSomv8zxZzZ1/Bf4JJbeatKnGvigaJWTPjpw7F2Uxl5G9zu5z1YlflGjhBXbsMLvRMd5TxE8s4tvCU/lBJa/l95TKa34nvjI6Ze4FK1bF0fmjfkp0BB7peBpUwiZnxju3MXay77mL+no/bJL/69MneKWNqX4lRMhZE5SxG4dIWQuQ+VECAkkGSuny5ev4Ouvv1Z7hBBSGGg5EUICCZUTISSQUDkRQgIJlZO5EjwuHvmUVX7nhDjzKSfy5OQ1HeqFB/iXFQ9kMgc7Xu2EFAmBUU5yTdGMp4qQikkmuZe5pOPpRFzWNEnFFGlFXfS25bjmeOregnHnATa/qGHjvpBMIGqnMoQP12io+dmD4llcTIiFeW05GSkq6tCzI7WaMRLPt+O1lMm1Ekm8Mk8t7MY0up7VcHR7CQ4/7/Y1lWDrr0vQNqyhontatRFSPNCtQ1VynnM36sOeKYcLwcTH09iLEIZ2pfqKSrDnNyHgA6HIVJZGQoqF2VVOlniPUfdNlrQxYzp2Ny9RN8uRA9nFFdRdROt5ssx46A/H/aSrAeaMXbne2zQO7oO7O+dEd++AvQdSuHd5qIdGyIwj3BAtE7l06ZL2j3/83fW1XGSkDRrqD3lWzB2P1sk1gLrURW+r9mGtQ7YJ38Z6XEfM8l69qqvlmFh7/Dyuoo6zXs9NEvdgEf3c3hVk9c8o3mu7P/Ee276U8/e0BVV3teiEo91Dxo/dTXm8ed1Uz5dCCZrMObdO1htLJFaPoFYWs7w0FrcaZApWW8xncQNek8fsHTRG11SieyluSdvNdBV6KlfVZhTMPATRseNtGZfvUbl65P3b7k/cjzNGNfqZ0CVrQnjGlqDam/JVIWwUW2cdNJN81kMjZKaYY8qpLik+JBPWp6vaGl4qldDsYgTf/dQTm8bYdbFZGvKvSB4OoUpszn/hERjPWz00QmaOIgyIJ5dEMmpuzS5j18U9zHBQnZC5TJEpJ6mY1qDF4YIZ7tvsoltvGZcUJ2T+EhjllJfOOzqo18Tr2J3azZsNysPS8WrFYNop3SVGDbzrmvfom5M7Gs6LTdWjHl+nOSo6x+uhkflFYJST2XnfyGW4e3EY0kZqGUgMz8tpBUFw61D9kl7HryXimGow2pm03KX6+yFgWMPpO6ohDRNnNBwVW68KssVRD43MN4Lj1lU3JyqxmvGiTP/SL27AEbNYojrHG0tvF9ats67Nc9adt92/MYPcLIdt3l9ooDZ5RnllSNYdxdEzfmZ+T+P0gNhsL8FWj9G9oqiHRuYdGecQl8nmwuElWLhwoWohhWDi4/uo2Ad8eHKBp9LRkQuAX9TSHscacmSuUWQB8eKh/PkS3Xp6oSPVwt5pdAnFlMpq0lFzrFhDjswlqJwCSwn2nAxho+fC3mn0/mxaeLAh3PRcf8cacmTuQrcu6OhuGzB07lv2dXZe7YQUCVROhJBAQreOEBJIqJwIIYGEyokQEkionAghgYTKiRASSKicCCGBhMopwPjLhe7MYe6SK9zMW57XrARyEuh9bP7YOUHUq52QzJhbykktss1r0cp0zMY1BYm1cIm8VMkzvKViegSNffZUwzOR8XK0exovDIewO6lsVQm2vhTC0X2sCENyg5ZTIIlh0M9auFuDONIH1EVfSl3g08ybniadsV/kouSaD+SiZI/Z6ZXfws19wN4X76PXZ9oXQpxQOQWYuqX+kvquCM9kaj2zbFXqxcZy4bIsWZV64TIh3gRGOTnjK9a4Sfw1WTpc7LdE7Mc6XS6jxp3lGEesRn9dj7/Y841nd03jHPp7HTXpklxBa+4nXdLUuMsVXzXyTPzV3zOLfSa7c04M904mzTvo6d6Z15T1CAlxIMx915pRXlKIunVGXbV2bcTW5lL/TdWgS6rzFpfbWk+981yqtp2lZpu1Jl38XKqeXdK5015TnV+XxHWNa1g/gzjOUTfO+NzmMea9e4l5nPV6bmJ/joaoc1vq+9nErO1nuz/xnjZnnbv7WnTnXW3B2/ctbankvvZ6VYrjzesK8X6+lPkqAVBOaTqOVdIpCq+ilg7FYyon+3k87sOvcnIWrEz7PiHqmOQCncY5XQt3WsXPNXRJ/Yx1Jemn4ObEPa1eKJvXz7u85iGxt4Vy2nnP49zqvlwVKmW+SwDcunKEnxQbmVo3x7LhsQGZJrcqqbYdqmv1NLX2FLXOGnLqPiwFOjPiybA92CxTBmuOAppOFoexQv139jCC774Kbo4jZa5yN5bIsNkwcMPYdVCupy7WtObUAX0yLwlEzEkWxtTzfFtyf2dd1z9Fbbj+67NbmCkpFibLWKnXZo1bYzgnNjMbVCckPYEJiCfKf9/Wq5TIQgdZKygP/I5+FQKpmGQVGOGCqc8pZTheeGDWUNYbCx+QoBEY5ZRAmvpKQTktnTQdKbK2Hejrx6BzlEmvZ1eHTTWprAMP9yYvnXcCg0dlxd9DeClwaSuFpSmf9dHB9O6scOc2is0N4d755Yb8CtcI987YTcIcFZ3pSa4k+ARAOcXQ6VxWYU4uTLJ0VEdqOOA+9KzXhutH427r+cT5ZcmmNBMaY+3SxWrHa0mzq9Nc0xcqnmVVnPq0ggC4dfKPwW6p1LdhkS3mN4Fou+N7eTiEjULR7P3M79KUaZz+QGyWhuwKP46abCpoeTOfS2tIUWBGxv1KIaYSmKNO8nZMSTs65nmsOQKUEOeol3UqQVxSjlaluqZ6Le1oo/O+5AiV16hcfkbrjKkK7pL0nqTvwGXUU8j4sbvagqp7WszR7irn74lj72rRCZfXlCS+C47YUewyL3OIG/GfKoxwlCgLptG1Yhp7t5fgnmfVF4lRHeaFpWmOkxaknOjaNszqMMRGAGNOJNiUYMc+sfkg9cJeOZP8hWHgwy2pf2Kxg3IGfh16dlAxETtUTiRjyp9fgKHtKRb2XnigVytu+413FWJzWsXqS4cwrrEKMUmGyolkRbVw1eTC3qNnXPI5HdD0hcF7KlWTC/GpI3nKlECKD9atI4QEElpOhJBAkrHlRAghMwEtJ0JIIKFyIoQEEionQkggyVI5nUU0UoYWKe+cVW2EEJI/cgyISyX1Q1xt/CM6dq5UbYQQkjs5unUrsbb5OeDzv2BKtRBCSD7IT8wp9gWVEyEkrzAgTggJJFROhJBAkrNyKq34nvofIYTkj9wtp0WPohRdGDg+qRoIISR38ra27uo7ZYj2CEuq+TJ2rS9TrYQQkh25K6fJI+je8DJK35tEw1OqjRBCciRnt27qT8cxhT2opGIihOQRjtYRQgIJlRMhJJBQORFCAgmVEyEkkOSonM5ioPME0FiD5aqFEELyQZZTCVSqFPnfyLvY9eYmlOrthBCSH1jggBASSBhzIoQEEionQkggoXIihAQQ4J81siY488Lc/gAAAABJRU5ErkJggg==;" vertex="1" parent="WIyWlLk6GJQsqaUBKTNV-1">
          <mxGeometry x="152.6" y="260" width="194.81" height="70" as="geometry" />
        </mxCell>
        <mxCell id="pJdw8WRcIaDxckqF8YET-31" value="&lt;p style=&quot;line-height: 110%;&quot;&gt;start counting&lt;/p&gt;" style="rounded=0;whiteSpace=wrap;html=1;" vertex="1" parent="WIyWlLk6GJQsqaUBKTNV-1">
          <mxGeometry x="154" y="410" width="200" height="20" as="geometry" />
        </mxCell>
        <mxCell id="pJdw8WRcIaDxckqF8YET-32" value="" style="rounded=0;whiteSpace=wrap;html=1;" vertex="1" parent="WIyWlLk6GJQsqaUBKTNV-1">
          <mxGeometry x="154" y="490" width="206" height="110" as="geometry" />
        </mxCell>
        <mxCell id="pJdw8WRcIaDxckqF8YET-33" value="" style="endArrow=classic;html=1;rounded=0;" edge="1" parent="WIyWlLk6GJQsqaUBKTNV-1">
          <mxGeometry width="50" height="50" relative="1" as="geometry">
            <mxPoint x="246.91" y="430" as="sourcePoint" />
            <mxPoint x="246.91" y="470" as="targetPoint" />
          </mxGeometry>
        </mxCell>
        <mxCell id="pJdw8WRcIaDxckqF8YET-34" value="" style="shape=image;verticalLabelPosition=bottom;labelBackgroundColor=default;verticalAlign=top;aspect=fixed;imageAspect=0;image=data:image/png,iVBORw0KGgoAAAANSUhEUgAAAS8AAADeCAYAAABsZ4bQAAAAAXNSR0IArs4c6QAAAARnQU1BAACxjwv8YQUAAAAJcEhZcwAADsMAAA7DAcdvqGQAACDlSURBVHhe7Z1dbBTnucf/a+jFaS9y0QMYTpzDVuQmbRpAOSdeW6iJVSLRRkm9jmmwER/hpj0hogWkCvmjxB/lHInQoKSnvSEkkVlSHNZNTlKOQmUSWfY6LQIiJ7kBZdOYYgPqkaKmvUhg57zvzDu7M7Mzu7Mf3t1Z/3/Sy3hnxuPdwfP38zzzzvMPaVpKg09uvrkTR4e/ja7ET3GPWkcIIdWgQS19cB5nh98CujdQuAghVcdH5HUescj38JH8MvJr7DnSgWX6ekIIqR4FpY2EEFIrFJA2EkJI7UDxIoQEEooXISSQULwIIYGE4kUICSQUL0JIIClMvK6G0BEKIWQZsatqWy3w/i/RG/mlMSfNhdhm4z0PT6sVhJACuYF39i7H0TdvqNc+0K/L5fqIva/WlQH/4iWFqwmIDwCapqVH151qe7W5cRpHf3QIy3q6F/wJgMSgEEEhhPPqNSGLh+V4cPsB3Bz+lj8hUtflPb+5gaHEDXTdp9aXAd+TVOdPhrCyCzgxW0OClUY9BdD9ewztvl+tWzikeLXMAHOnNDSqdfXHh/ivQ8N4Rr0C7sbxHc/ghyvVyzrg+tmfI3z+snqlCPfgH098U73IkLWv6371f85MjOecge++fhwPLlcrXdD3G39kYZ7MkeLlZ8zFRJgl9p5y2VbtceN/tms9zc9qH7psW4gxNSDORaemzblsq4tx7X+1J37xhPZPJ2fS66ZPite/6NNevebYNyhjdkSLIqqdmHXZZg6Xzy1H1md3268ez1nOMa+d++k/az0/HdVuuG43xofP59+n2FHWgr2Mzqz1sJCIUOyEMCzWd5wUX07b9y2+DmU8MJ4rXTRrXeZwq9PpqaB8v466Xvp9Wda39IvXo8BKy36Fp5EJcS4a9OPPn3xcHKNBjWGxpbq89+5LeP2OHUhaIosHnjiK43dcxs53P1RrLEwP6++942TxibR+DjbHxDk0zot5Pko5Zhr5/pq2It4ZRVuurGHlw/hJWCz/7y+4bqwR4fXbeC4J/HyTJYIS+53c9DCQPIXfzhmrAnHO9J/5eN46tfH7mO/30EgfkfgxzpaxjlUIucXLIjAyZZS0WC9YizhJgZD7TKXrYcCQuMjdLup4l/jeSGbfuRjQGymy+P/+BD7C93Hfv3vHrl0ivdPfUz5VkO+3Cdjv9r7u1HBarZ8aEK87xe+1eq2PIlPI3kgDVl7ZJ46REuMaTnT2oUX/hawWH+IdcbE+dvc6rFBrdC69hZ2fiWXyT3jPWJMmcbZPX8bHxkt736NbxR+EZxGeledCjMSg+F1ZVdINFv1CjIj3NzAp/o+6Cv4/uv7BJF7Hw3hwrVqhcxO/nXpbLC/jdx/cFMv6Ome+uc/oMPPRxHnjdYXJLV7NmYtTXsiSjDiJ0afKZULkukUkIuthQpMUGnqkWIj1x5wnUl345r6NG4CoWCaLEK+PJg4BkUfwzRx5dyFYP0Mp78s3nSOY60v/RLS1i584moS4FgrA/pc3awwWEMvN/QWXxGLtskyFQtZ7vnoGOCejDfHOPlHRhklk46C+jLa3lVwDHEq8lqmpNrdhSCwuJIu7vBOD4g9DV1wcU1zU6XOcg0sv4SEZZbU8nBahT/56GbhjFVar10Zdaw9+d3ePiKqA1/96o67OWWHcj7XdYvHxn4WcV56ypI2Js8Yy7AzJm8WJFYsLzivxXnmZWlBRTY/YvzBu4MbHYvGNfy1PMVCIas60YgEoxy+vuBTQo0duHsPPheuKiDD+uwvhv27GPw7swANqbRbNPfrPOb2l1E8yiLaCfwfcmBeZQINI76Pij1Eq9++VEKyvHuoyxpm38dj9R/EzW5RlQd/3FFbviOHkRq+/lkE9Z8WxbPX3hQB86iFe53HphNinbcOCtNEqX81LXPiyXOBG/Iqz9kVqHzPCOOp6962mmT6mZwK+WLtDiExMjaP4weU9QqBeykrzPjEjqQO57h7W2jkzRDwdgcv0GXF0N1nW6VG5PXKX0SrQhxbLusJqc/Luv5zXNYG1iRvY80iZ0iIHZS3YexFdw5ZhC0sZ08aV/wIZeDxzZhjYJCMMSyp0U4bQYayu9Vv/KqqZGjAuVP8X3jL8sH0HHsPbeEfmgYLVX78b+Eykk5dbkbRFUjfwyWfAY18XF2bNnrNGdJ2yROAJmaoa0Wh6nR6V2yP3uZgslgxiyrKusAjxfnQJ0RpKbMAlIWIFTWgtgLKIV2Sj+Ef8pRt31oamgV6x6NhgvCw/y7H8G2JR4Zw7vEb8Iz5vYXWphaScaeM38aAMoe/YgR2OIvU7ly+LD/9v2anQ1Rg6pEhW9UZDNpE+40KUBeyCBNzCim+1CjGz18F0Lv0Jz+Bu/OBbUqjq55wVys1P3hIn+i6PtNCoid0cn1iQ67M8kVezhhMibezea72zGMKwvGYGsKCTWu/ZIG/XvokPF0bcXWlU+fFhOeWjDnngOyL6ENHGT85mfuXee3UPdn72MM65pEPzE3GRjAhGt2bfnKkyjVteMyKO/lYfQiHSvpeMKQ9pEVLTJ545Y0kl597GFr0+tjudQtbTOfOPUdMqW825QMqWNsrpCPJzZOY+ARdiljuSC4V+u/YtvP9HD/WyzttSAUh3k3pd7CM+Qqzl3Vd9yod57GKPVYvIeUw7dojfTVn/MYrZDyXFRehRgG7csk+/MSOpzF2uApFp5OwIoqNxW3bw3quqUJ8eRtr3j/+wR1kPPBHDufDbeMjcTwgc7j9qSw/r7pz5QU1T+u7mhX+qxY2QSCsCX5Dy+6gCWTjktATj7p7ltj3JSbDPmXxA+1v4wzdyP5L30QvLEft4YYx7KlKwX2iWPfKUHn394T9PV7T2RRRXYzgsnzoY2Efh8kvAz9nNN3+GPyTyR136VIoFoi7ES7+78fqvsSzxYxx9oTqzfRcn6i5n01as9zsRdNFTB+fs/V+KTOct3POb/JnOsqZvi4+8MI8Q1UXamEb2DfoR6OhNyIJhpIvvt33gf/6Wfl0e0r+UrXHK1RanvsSLELJoqJO0kRCy2KB4EUICSU7x+uCDD/H3v/9dvSKEkNqBkRchJJBQvAghgYTiRQgJJDUgXqrnkNtT/6rPd3WevE/h0PpbOKRao6S5dBtfWX9bNswghFQRRl6upHDy6RT6W0PYaWtxIlgbwiutGjY8fbt+HsQmJIDUtnippnLFGCdYsbvz5I/kpo+msG0yhInnl7j83AZseb4BA5MamsR+hJDqUPeRlxSulWNRzKWb801iSDqueAnY9ds48jIw8OIS2YLfgwYceDEEvCxSS2daSQipCFURL9kKJBMJrcruN27WusyRowum/ViWob5Hb0Zni9wi2CXb3Dp6O5lMv6phzC1ddKKnj0D/sRzpo9kts8gunoQQbyosXsrVZWbEEglJr0K12cRMF922WTD6IVl6bes9uoFo7FqRT+uncE5EXe0bQz7S1AY8JNtfi/TxXNqh1E66W2b/OChfhJSXyoqX7uoSxYkjpdWwDBIY75dCtSvts4jmXbrY5TPyTF6RkrIu26rtkiZ9Z9H+gL/T0vhACO1i6fTkM2ncENV9HzHQlnmPhJCyUFHx0l2C81mu++VqEhfUl1ncG/YWR5GS6nb9LoIy/6lssBFC2Oa0kIMVISGBwMVPPQr3d3bhtIwI2eeKkLJTlZpXWRDCsH9A9pE/lknJlF/f0EYPsZC1NOldZ3OpJoQEkeCKl0gMkzNyaTHHFMIkrd1dHZJl8Vw33RzEVIlTLwgh1aei4hVeI+/yJe1+h4W4G1sx62dWA00xPIWraSviupFmj2f9qfEu6eytIelRgM/iuoaLYrHuLq/TaJrBDrNgT0iZqah4GQXsPhw2HYz1aOgiojnuKHpyZ1gcK46ky3QHGz6FS2dtSNpMYuw9f5NP59/TMCaWnm7I0+O66a6MDtOfmRBSHkS0onmNmZkZ7fPP/+a6reiRGJRVcTUGtSmxbmpAfD0wmd5Hf53exz5EWpjeby4Wdd0HnSPanI9jWfczR+K5L7Slu7/MWp89bmmx3WLf5265bDPHNe1Ep/pZls/HwcFR+qi8eJVpmMJlFTN9zI5oIjktXizmv9Q6132hdb6eS5TEuPiltlTsF5t32WYZnu+Tg4OjpBHYgr0xV2sQbc4al0gn16svi2LFEuzdLlLHgymc9Kx9pXDoSaFJ2xuwJee0igSOdYn32TmCXd7PGhFCiiCw4qUX/9GHcUdvmsRgq15n8pwu4YPmPQ36oz/bNrm1vsl0nJgV+7mj2vyEWnFBzvbn3U1Cyk5O6zPZwz4cXo2vfe1rak1toT90LSMbGz4K876Q/bxSwItLccD6nKPs5/UkMHEh14PbhJCFJtDiRQhZvAQ2bSSELG4oXoSQQELxIoQEEooXISSQULwIIYGE4kUICSR1L16Gc1BAujp4eULSK5KQLBh51QrXb2PzkxraD4ayJ7/SK5KQLCheC0RhXpEpHNqkYWx7A0496vZfQq9IQpxQvBaAQr0i599IoR8hTHg+KymhVyQhViorXrqP4eOIXZUPUHtHJfo254Wuf28DhlXhR99nMJGJcKQ3otpHvjb3y2B2NTVGh2tzQPs+2bUyY7v+vQ5vSevPK8wrMoXjB+GeLjrx4xWp3pf75yOkfqhC5BVHd1MDDq+5Zo9KijFmnXkWT13ZZ/g19j+Ljr1xdMwaXo+9Zy3H67yIwyFx1SdUJCT2j3etsgucLnyqC4SKmKYGZH/87GK//N5QBGm/yDkhTL0RQ5QLpiC7tfxekbpDkyCf/RshQac6aePAJE5vMeOSCNpk7+WZZOEX2yjQsdPsHxEXCvACukxbNevxRMSz3mrMofwde49korvE8a2Id47gV+n3Jd5ZnxBWtxbO0n3I0rnCaG+duyW1l1fk9Lsa0BrCQz7t1vJ5RUY2KuPd9ja24SF1TVXEq5ReWzYcHpDrw16Xq7NpYSPC94pF2gxEGdhmXfBhhKWJ7RWbZUi2L6TyZ3Q1/5B4ekWmhKiJxRo/Dt2KfF6Rym0888eBkPqkOpFXDWA0M1QoA1s9HbTUsUKhVcU5G1mhVyQhC8KiFS89jesUkZV8oVpHRy31LtsoVnRkHY1ekYQsCIERr/mJuKxqlQkjTcykfx7pYSlI4cprudYgIkCxuKL5r/fl84o077jmnFdGSPCpSfEyzGkz0wrc2z0Xj9HnXohKOqJqRNdeeceytTxTDHwJl0Hzd0I57x46yecVmRb50a04xueJSB1Tk+Il50lNDRhTKmTtyZjwKe/8FY5pdNtiqWW1zNjvFurIQvfsCJBV9yp8CoR+51L/yv5z9eGMiAoyuk3h3FmxyOFa1LhlX/o8XUgy9iL1C3vY1wDzb9xC00HglTNLc1up6eYfWt795ATelv4oTsy+lpk6QkidsWgL9rVE46MNevS1bSjXg9c+vSJFynpYn5axj8JF6hqKV03QgANnQmj3fPDaj1ekerSpaas+IbfoO6SEBASmjbWElyckvSIJyYLiRQgJJEwbCSGBhOJFCAkkFC9CSCCheBFCAgnFixASSChenqRwaP2t7H7xtCEjpCaoXfFS3RGye9FXgsyk0J1r1SoT2pARUhMw8nJh+mgK2yZDmHh+iUsPLtqQEVILULycXL+NIy8DAy/mms1OGzJCqk1VxMtmeyaGtYdWepveDwvojdj3daaRWeauDhcifbvehsaP9ZmIul7VMOaWLjrxY0NmNgYsxhmJEJKTiouX0a5FNunLtFnef2V3umdWpE+tnx2B7DI/ZNqVqZExuZhHbHMDVnatsxxrEkP9rdk9s6S1Wj7rM50Uzomoq32jH0OM/DZk6caA/eNZ9mmEkNKosHjNIzkjFg4XnUhfEX2npo+he1T2rLI2FYygR3o4unQRlSKYZX1m9XaUFOShiLw2ZEYjREGWaxAhpFQqLF7KckxGRyWmUoa5arYPIprb9E6i9i6iHtZnDq/I+U/lM+ohhH16KOa1IVOWaGxPQ0j5qXjaKNNC6TCtC1ie+lNeTPcfF8pqpkEIqTkqLl4S2aPeqFEZ1vyy/lQW4wsL0TVeskYIqQeqIl4ZGtF1SgmYM1JSXopeJhK6rb3FYSjN9Dh6EUXHhlwld3eH7Ma7QuJfDUmfTj55bcjSdziHWbAnpMxUWLzExey8E3h1HKdH3SIl5aXYdcz9wteL7nF077UeTxxfmrzm6d9uWp/td1riF+Tkg7w2ZIaQSvpwuMyRJSGLHpG+aV5jZmZG+/zzv7luK3rMjmhRGd5YxlDCZT99TGpDOfe9pomozbY9Grtm2Z7S5mJR23Z9dI5oc5Z9rCPx3Bfa0t1fem7PjFtabLfY97lbLtvMYXl/A5Mu2zk4OIoddd8G2jCslXPBcpu/prl+G5s3iVNysAGnHs0RmPq0ITMNc21TNQghJVPlmlcNsmIJ9m4XqePBFE561r582pCJNPaYdPruHMEuChchZYXi5ULzngb90Z9tm9xa3/ixITNm/4dCrbgQuwbtVJePGfuEkEKgeLmiOkdAw7msfl5ajo4TJvIuqvEo0mnnTQFCSFmg9RkhJJAw8iKEBBKKFyEkkFC8CCGBhOJFCAkkFC9CSCCheBFCAkkNiJea0OnWnHB62Oj55XyYuyLQt5GQWoaRlyv0bSSk1qlt8WruMZoWluPxGtPJJ/R42uzDC/o2ElL7LILIS6Wle4H9sv10PujbSEggqIp42X0bV6F7VG0wMWtd5shh1uH0gHR+T2JwFU63Gw9H+2kMTd9GQoJBhcXLiIJaZkYwp/ewz/Sxt2Gmi27bLGR5QErbM0FUdnJQjj3S8MP/w9H0bSQkKFRWvEyvxSPlaBGj+tDHdmWaDCo/xvjYeHHFdPo2EhIYKipeutdiZxRthRrMunE1iQvqyyzuDRcljvRtJCQ4VKXmVRaEMOwfcBh06JEdMLSRYkFIvRNc8RKJYXJGLvvQYhbpI33sFU/IIqGi4hVeEwVGk7A5NKpoqWDM+tmsKtarUYpw0beRkOBQUfEyCtgWD0M5lSByEdEcdxQ9uTMsjhVHMs+E04KgbyMhwUFEK66eaHIsiG9jYlBWxdUY1KbEuinZLN7ia6i/Tu9jH1bfRldPRjksvoye+8jh4t9I30YOjmCMyotXmYYpSlmGtaapbbFiMf+l1rnuC63z9VyiJMbFL7WlYr/YvMs2y/B8nxwcHCWNwBbsk1fk9M9BtDlrXCKdXK++LAr6NhISCAIrXnrxH30Yd/SmSQy26nWmUqZL0LeRkNon0NZnppW+Hfm4kE9r/5zIfl4p4MWlOGB9zlG3+QcmLuR6cJsQstDQt5EQEkgCmzYSQhY3FC9CSCCheBFCAgnFixASSChehJBAQvEihASSuhcvORcsMF0dvDwh6RVJSBaMvGqF67ex+UkN7QdD2ZNf6RVJSBYUrwXD7OVljlx+kSkc2qRhbHsDTj3q9l9Cr0hCnFC8FgLd8qwVvQOT6SaJUwNxdDe5C9j8Gyn0I4QJz2clJfSKJMRKZcVLv6iNC9jmt7g5ZkuH9G2OdaYH4rAq/Oj7DCZUTcv4Ou2TaNkvgz0S6nBtDuiMlpy1MmO7/r0Ob0nrz0sc34p45wjmLMYbkT5p4yYE7Liz+pbC8YNwTxed+PGKVO/L/fMRUj9UIfKSEUgDDq+5pqKSSQyNbsXKYoxZZ57FU1f2GX6N/c+iY28cHbOG12PvWcvxOi/isIiEkFDtosX+8a5VdoFT0ZLeBSIdLcn++NnFfvm9IaFLpl/kXCyK3ogZVSlLtvY2eycJs92108OxILu1/F6RukOToGj7N0ICQnXSRpFOZYxgI2iTvZdnkoVfbEIMOnaa0U1cKMAL6DJt1azHG41jvdWYQ/k79h7JRHdmtPQri0FtpE8Iq1sLZxlVWTpXGO2tVUtqZcm2Ppw5jh4dSrHTTXEv2lpXT7+rAa0hPOTTbi2fV2RkozLedYonIXVGVcSrbNZkDg9Iq2DYcTYtbET4XrFIm4F4REsIIyxNbK/YLEOyfSGVP2O2+YfR12uljA5d2/SkkLwiFmv8OHQr8nlFKrdx/y7hhAST6kReNYDRzFChoiU9HbTUsUKhVcU5G+nI+tgqnG4XaShNZwkpO4tWvPQ20p0ispIvVOvoqKXeZRuFiI86Vm/EqLFZI6D5pG6UhnA5HMMJWeQERrzmJ+KyqlUmjDQxk/55pIdFoWp4WX3r5zE+Jj7BQJslfWwQEaBYXNH81/vyeUWad1ydd2sJqTNqUrwMc9o4xlVh273dc/EYfe4HMZWOqBrRtVfesWwtyxSDyM4RREe34inLsRKDMgW1/kyD5u+Ect49dJLPKzIt8uLnH+PzRKSOqUnxatzymprUadSeVo5FMSenVKjthWAa3bZYalktM/a7hTqy0D07AmTVvXLNjPdAFvAdx2rp9+itX5DRbQrnzopFDteixi370ufpQpKxF6lf2MO+Bph/4xaaDgKvnFma20pNN//Q8u4nJ/C29EdxYva1zNQRQuqMRVuwryUaH23Qo69tQ7kevPbpFXk1hsOynjewj8JF6hqKV03QgANnQmj3fPDaj1ekerSpaas+IZfTM0i9w7SxlvDyhKRXJCFZULwIIYGEaSMhJJBQvAghgYTiRQgJJBQvQkggoXgRQgIJxYsQEkgqLF5Gc76Snhskrrj2/feDhyfk9NFb+AqdikgNU2HxakTXKdUjS2+JTKpKDq/I5idCaH85hc1vUMBIbcK0cdGSxytyxRKcejGEsYO0WiO1CcVrkeLLK3LtEkxsB/qfzE4rCak2tSteDl9Ep4eiX99GfbteC8rt25jfK9Ko18nv0/c1j5F+n876Xb76ntrueN/p49pwHiuHL6PjWNn+lRL/XpF6+ggNR3Klj/SKJFWgNsVLXoBn2yx95KUXo4uHol/fRukLmc+30S9ju3XPSenVGBdfd0Skf6NslBjH6Qnz4jXMN7rvzThmz8Xg7pjd34pQk3zf3u8tMbgbOKK2W/bJEgv5OS3HMvwks30nC/KKXCHES5y6sbPerarpFUmqQW2Kl+xEamvp0mi0aUYfxq2C49e3UTDk5ttoFTifxEfXYb9pqqH7QWa6o5o98OdPPutoMy07nL4gfqabY7bssGppGtjcpndCtXZBjfQ5mgqq958tFvYGhGYXWds5ExTmFWka3QKfGCuyoFckqQa1mzY6uTMsLkQHpfo2FmN0azPQiLo4AbkZbUg8fqbpYJQmgh4RNeX2XVTHcuI4H+4U7hXZeFdI/Ksh6dVnn16RpArUrHiZdaX0aNpaRveghSSJpG7rL9JB6/sXo0XmasXgqGOVdCxC6oSaFC8pXEYPdkudZ3YkO/KqSQwbNQxk6l22caqrsNRKCpcUbsfxpmTfaEIWMTUoXspTcUF7sHvZ+9spziuyhJTUBeM9CCFP1/ZKpXCvyPlPZb/KEMJeNTIzMqRXJKkgNSheKnLpH8/cJZO34suYNpq+jenCu6CcXpGmb+NKOQ2iRBrD68S/1juZxrSJUtLGwrwild1aK7DaWJEFvSJJNaiseFlrNxF5ez3jzZj5q92IrlNy6oHFa/FIGHMlpY35fRvL6RWp3y2V3+tS9yp4ekZzjzEtI+0BuQrJvSWmjYV4RV7XMDYpAuFdSzyjVHpFkmpQ9z3sjQhqnbvh6yLGr1ekfEB7w5UQZp/3Fi9Jpk5Jr0hSGWr2biNZWHx5RV66jQ0v5466dERETa9IUmkoXouWPF6R6Y4TYr+1al0W9Iok1YPitZhRnSPwspbdz+vVHB0n0hgTauXUjfTTC4RUCPo2EkICCSMvQkggoXgRQgIJxYsQEkgoXoSQQELxIoQEEoqXJykcWn8r23zCwyqMEFJZale81HOQRbVqLpkUTj6dQn9rCDudEzTXhvBKq4YNT+eYmU4IWXAYebkwfTSFbZMhTLg+z9eALc83YMBrZjohpCJQvJxcv40j8nm+F5fkcNZpwAF9Zjo9DQmpFlURL2eLZ6sLTnqb6t/VG7Hv60wj09Zn5nD00PJrfWaiPxbjli460dNHoP9YjvTRbAFUhr5ehBA7FRcvo3WKdMzJtDTef2V32hIs0qfWq/5d0vXH3E+OzDN0RlM+o92NuV310HJ29PRtfZbCORF1tW/0Y05huup4N/VLN+mzNlYkhJSFCovXPJIzYuFw1smy9vLD9DF0j8r+UdY+XRH0SA9Hl46evqzPCvEzFDQ+IA1ZgU/mjNdODOsxQZaTECGkVCosXqq/u4yOSkylDKPTddnWYy6+h36tz/L2aneyIiTeAXDxU4/Cvd5RVUR6bBVDSNmpeNoo00LZ1thqDVa0TXyW52EG0wCWEFKfVFy8JLJfvFGjMqz5Xa3rSyS6xkvWCCH1QFXEK4M021AC5oyU7gxjvVh4GTroFvMWt5800+PoRRQdG3J2XHe1PsvrDO3kuoaLYrHuLq/TaN7hHGbBnpAyU2HxEhez807g1XGcHnWLlAwLtHjXMfcLXy+6x9G913o8cXzpSpSnl7qb9ZlOIa46gvn3NIyJ5eqVxussdCGV9OFwmSNLQhY9In3TvMbMzIz2+ed/c91W9Jgd0aIyvLGMoYTLfvqY1IZy7ntNE1GbbXs0ds2yPaXNxaK27froHNHmLPtYR+K5L7Slu7/03J4Zt7TYbrHvc7dctpnD8v4GJl22c3BwFDtofeZEGk9sEqfkYJ7+7fIB7Se1vNZhpnmtbaoGIaRkqlzzqkFWLMHe7SJ1PJjCSc/aVwqHhHBhe0NO4ZJp7DHput05gl0ULkLKCsXLheY9DfqjP9s2ubW+yXScmBX7uWPM/g+FWnEhdg3aqS4fM/YJIYVA8XJFdY6AhnNZ/by0HB0nTORdVONRpNPOmwKEkLJA6zNCSCBh5EUICSQUL0JIIMmZNhJCSK3CyIsQEkgoXoSQQELxIoQEEh/idR6xyHL0yvHCebWOEEKqSwEFeyli38NH3b/H0O771TpCCKkOBaSN92Njz/eBj/+Mm2oNIYRUi8JrXolPKV6EkKrDgj0hJJBQvAghgaQg8VrW9G31FSGEVJfCIq+Vd2EZDuHsmzfUCkIIqQ5FPdv40QvLETshIrGeD7DnkeVqLSGEVI7CxOvGaRx97MdY9psb6LpPrSOEkCpQUNp4849v4iYOYC2FixBSZXi3kRASSChehJBAQvEihAQSihchJJAUIF7ncXb4LaB7A+5RawghpFr4mCqhWuHILyO/xp4jHVimryeEkOpBAw5CSCBhzYsQEkgoXoSQQELxIoQEEooXISSAAP8PN2awwUOpS9gAAAAASUVORK5CYII=;" vertex="1" parent="WIyWlLk6GJQsqaUBKTNV-1">
          <mxGeometry x="188.76" y="495" width="136.48" height="100" as="geometry" />
        </mxCell>
        <mxCell id="pJdw8WRcIaDxckqF8YET-35" value="" style="endArrow=classic;html=1;rounded=0;" edge="1" parent="WIyWlLk6GJQsqaUBKTNV-1">
          <mxGeometry width="50" height="50" relative="1" as="geometry">
            <mxPoint x="249.51" y="600" as="sourcePoint" />
            <mxPoint x="249.51" y="640" as="targetPoint" />
          </mxGeometry>
        </mxCell>
        <mxCell id="pJdw8WRcIaDxckqF8YET-36" value="" style="endArrow=classic;html=1;rounded=0;" edge="1" parent="WIyWlLk6GJQsqaUBKTNV-1">
          <mxGeometry width="50" height="50" relative="1" as="geometry">
            <mxPoint x="325.24" y="680" as="sourcePoint" />
            <mxPoint x="365.24" y="680" as="targetPoint" />
          </mxGeometry>
        </mxCell>
        <mxCell id="pJdw8WRcIaDxckqF8YET-37" value="" style="endArrow=classic;html=1;rounded=0;" edge="1" parent="WIyWlLk6GJQsqaUBKTNV-1">
          <mxGeometry width="50" height="50" relative="1" as="geometry">
            <mxPoint x="470" y="620" as="sourcePoint" />
            <mxPoint x="510" y="460" as="targetPoint" />
          </mxGeometry>
        </mxCell>
        <mxCell id="pJdw8WRcIaDxckqF8YET-41" value="" style="endArrow=classic;startArrow=classic;html=1;rounded=0;exitX=0.5;exitY=0;exitDx=0;exitDy=0;" edge="1" parent="WIyWlLk6GJQsqaUBKTNV-1" source="pJdw8WRcIaDxckqF8YET-23" target="pJdw8WRcIaDxckqF8YET-15">
          <mxGeometry width="50" height="50" relative="1" as="geometry">
            <mxPoint x="590" y="340" as="sourcePoint" />
            <mxPoint x="610" y="320" as="targetPoint" />
          </mxGeometry>
        </mxCell>
      </root>
    </mxGraphModel>
  </diagram>
</mxfile>
